# xmcd
#
# Track frame offsets:
# 150
# 22070
# 35150
# 52634
# 68138
# 87568
# 103891
# 119126
# 138897
# 151029
# 166868
# 182050
# 199237
# 216443
# 231847
#
# Disc length: 3307 seconds
#
#
# Revision: 1
# Processed by: cddbd v1.5.2PL0 Copyright (c) Steve Scherf et al.
# Submitted via: FreeRIP 2.945 
#
DISCID=d70ce90f
DTITLE=Kenny Rogers - Always and Forever CD 1
DYEAR=1999
DGENRE=Country
TTITLE0=Have I Told You Lately That I Love You
TTITLE1=As Time Goes By
TTITLE2=Endless Love
TTITLE3=Unforgettable
TTITLE4=I Can Have Eyes For You
TTITLE5=Evergreen
TTITLE6=Misty
TTITLE7=She Believes In Me
TTITLE8=Always
TTITLE9=When I Fall In Love
TTITLE10=Crazy
TTITLE11=When A Man Loves A Woman
TTITLE12=You Decorated My Life
TTITLE13=I Can't Help Falling In Love
TTITLE14=The Wind Beneath My Wings
EXTD=
EXTT0=
EXTT1=
EXTT2=
EXTT3=
EXTT4=
EXTT5=
EXTT6=
EXTT7=
EXTT8=
EXTT9=
EXTT10=
EXTT11=
EXTT12=
EXTT13=
EXTT14=
PLAYORDER=
